<svg id="Layer_1" enable-background="new 0 0 100 100" viewBox="0 0 100 100" xmlns="http://www.w3.org/2000/svg"><path d="m85.6274567 8.4461012h-14.9142685c-1.602005 0-2.9006882 1.2986813-2.9006882 2.9006863v6.0711699c0 1.602005 1.2986832 2.9006863 2.9006882 2.9006863h14.9118118v14.9081287c0 1.602005 1.2986832 2.9006844 2.9006882 2.9006844h6.0736237c1.602005 0 2.9006882-1.2986794 2.9006882-2.9006844v-14.9081288c-.0000001-6.557024-5.3155213-11.8725424-11.8725434-11.8725424z"/><path d="m14.375 20.3186436h14.9118156c1.6020031 0 2.9006844-1.2986813 2.9006844-2.9006863v-6.0711699c0-1.602005-1.2986813-2.9006863-2.9006844-2.9006863h-14.9118156c-6.5583811 0-11.874999 5.3166199-11.874999 11.875001v14.9056702c0 1.602005 1.298681 2.9006844 2.9006855 2.9006844h6.0736284c1.602005 0 2.9006853-1.2986794 2.9006853-2.9006844v-14.9081287z"/><path d="m32.1875 88.6532135v-6.0711746c0-1.602005-1.2986813-2.9006805-2.9006844-2.9006805h-14.9118156v-14.9081269c0-1.6020088-1.2986803-2.9006882-2.9006853-2.9006882h-6.0736284c-1.6020045 0-2.9006855 1.2986794-2.9006855 2.9006882v14.9081268c0 6.5570221 5.3155174 11.8725433 11.8725405 11.8725433h14.9142742c1.6020032.0000001 2.9006845-1.2986831 2.9006845-2.9006881z"/><path d="m85.625 79.6813583h-14.9118118c-1.602005 0-2.9006882 1.2986755-2.9006882 2.9006805v6.0711746c0 1.602005 1.2986832 2.9006882 2.9006882 2.9006882h14.9118118c6.5583801 0 11.875-5.3166199 11.875-11.8750076v-14.9056625c0-1.6020088-1.2986832-2.9006882-2.9006882-2.9006882h-6.0736237c-1.602005 0-2.9006882 1.2986794-2.9006882 2.9006882v14.9081268z"/></svg>