<svg id="Icon" viewBox="0 0 24 24" xmlns="http://www.w3.org/2000/svg"><path d="m15.168 11.544-3.197-2.131c-.537-.36-1.226-.394-1.796-.088-.57.305-.925.896-.925 1.543v4.263c0 .647.354 1.238.925 1.543.26.139.543.207.825.207.34 0 .678-.099.971-.294l3.197-2.131c.488-.326.779-.87.779-1.456s-.291-1.13-.779-1.456zm-.832 1.664-3.197 2.132c-.109.072-.208.038-.257.012s-.132-.09-.132-.221v-4.263c0-.13.083-.194.132-.221.027-.014.069-.031.12-.031.041 0 .088.011.137.043l3.197 2.131c.097.064.111.158.111.208s-.015.144-.111.208zm-9.086-10.208c0-.414.336-.75.75-.75h12c.414 0 .75.336.75.75s-.336.75-.75.75h-12c-.414 0-.75-.336-.75-.75zm13.75 2.25h-14c-1.517 0-2.75 1.233-2.75 2.75v10c0 1.517 1.233 2.75 2.75 2.75h14c1.517 0 2.75-1.233 2.75-2.75v-10c0-1.517-1.233-2.75-2.75-2.75zm1.25 12.75c0 .689-.561 1.25-1.25 1.25h-14c-.689 0-1.25-.561-1.25-1.25v-10c0-.689.561-1.25 1.25-1.25h14c.689 0 1.25.561 1.25 1.25z"/></svg>